<mxfile host="65bd71144e">
    <diagram id="SYdNa0us9zYkgSYLafI0" name="ページ1">
        <mxGraphModel dx="786" dy="659" grid="1" gridSize="10" guides="1" tooltips="1" connect="1" arrows="1" fold="1" page="1" pageScale="1" pageWidth="827" pageHeight="1169" background="none" math="0" shadow="0">
            <root>
                <mxCell id="0"/>
                <mxCell id="1" parent="0"/>
                <mxCell id="30" style="edgeStyle=none;html=1;" edge="1" parent="1" source="5" target="4">
                    <mxGeometry relative="1" as="geometry"/>
                </mxCell>
                <mxCell id="26" style="edgeStyle=none;html=1;" edge="1" parent="1" source="5" target="4">
                    <mxGeometry relative="1" as="geometry"/>
                </mxCell>
                <mxCell id="2" value="&lt;span&gt;contacts&lt;/span&gt;" style="swimlane;childLayout=stackLayout;horizontal=1;startSize=50;horizontalStack=0;rounded=1;fontSize=14;fontStyle=1;strokeWidth=2;resizeParent=0;resizeLast=1;shadow=0;dashed=0;align=center;arcSize=4;whiteSpace=wrap;html=1;verticalAlign=middle;fillColor=#d5e8d4;strokeColor=#82b366;" vertex="1" parent="1">
                    <mxGeometry x="330" y="180" width="110" height="250" as="geometry">
                        <mxRectangle x="330" y="270" width="100" height="50" as="alternateBounds"/>
                    </mxGeometry>
                </mxCell>
                <mxCell id="3" value="&lt;pre style=&quot;&quot;&gt;id (PK) &lt;br&gt;category_id (FK) &lt;br&gt;first_name &lt;br&gt;last_name&lt;br&gt;gender&lt;br&gt;email&lt;br&gt;tel&lt;br&gt;address&lt;br&gt;building&lt;br&gt;detail&lt;br&gt;created_at&lt;br&gt;updated_at&lt;/pre&gt;&lt;pre&gt;&lt;pre&gt;&lt;div&gt; &lt;/div&gt;&lt;/pre&gt;&lt;/pre&gt;" style="align=left;strokeColor=#82b366;fillColor=#d5e8d4;spacingLeft=4;fontSize=12;verticalAlign=top;resizable=0;rotatable=0;part=1;html=1;" vertex="1" parent="2">
                    <mxGeometry y="50" width="110" height="200" as="geometry"/>
                </mxCell>
                <mxCell id="4" value="&lt;pre&gt;&lt;span&gt;&lt;font face=&quot;Helvetica&quot;&gt; categories&lt;/font&gt;&lt;/span&gt;&lt;/pre&gt;" style="swimlane;childLayout=stackLayout;horizontal=1;startSize=50;horizontalStack=0;rounded=1;fontSize=14;fontStyle=1;strokeWidth=2;resizeParent=0;resizeLast=1;shadow=0;dashed=0;align=center;arcSize=4;whiteSpace=wrap;html=1;labelBackgroundColor=none;fillColor=#dae8fc;strokeColor=#6c8ebf;fillStyle=auto;" vertex="1" parent="1">
                    <mxGeometry x="110" y="180" width="100" height="140" as="geometry"/>
                </mxCell>
                <mxCell id="5" value="&lt;pre&gt;&lt;div style=&quot;text-align: justify;&quot;&gt;&lt;span style=&quot;color: rgb(63, 63, 63); white-space-collapse: collapse;&quot;&gt;&lt;font style=&quot;&quot; face=&quot;Helvetica&quot;&gt;id (PK)&amp;nbsp; &amp;nbsp;&amp;nbsp;&lt;/font&gt;&lt;/span&gt;&lt;/div&gt;&lt;div style=&quot;text-align: justify;&quot;&gt;&lt;font style=&quot;&quot; face=&quot;Helvetica&quot;&gt;content&lt;/font&gt;&lt;/div&gt;&lt;div style=&quot;text-align: justify;&quot;&gt;&lt;span style=&quot;color: rgb(63, 63, 63); white-space-collapse: collapse;&quot;&gt;&lt;font face=&quot;Helvetica&quot;&gt;created_at&amp;nbsp; &amp;nbsp; &amp;nbsp; &amp;nbsp; &amp;nbsp;&lt;/font&gt;&lt;/span&gt;&lt;/div&gt;&lt;div style=&quot;text-align: justify;&quot;&gt;&lt;span style=&quot;color: rgb(63, 63, 63); white-space-collapse: collapse;&quot;&gt;&lt;font style=&quot;&quot; face=&quot;Helvetica&quot;&gt;updated_at&lt;/font&gt;&lt;/span&gt;&lt;/div&gt;&lt;/pre&gt;" style="align=center;strokeColor=#6c8ebf;fillColor=#dae8fc;spacingLeft=4;fontSize=12;verticalAlign=top;resizable=0;rotatable=0;part=1;html=1;labelBackgroundColor=none;" vertex="1" parent="4">
                    <mxGeometry y="50" width="100" height="90" as="geometry"/>
                </mxCell>
                <mxCell id="24" value="&lt;pre&gt;&lt;font face=&quot;Helvetica&quot;&gt;users &lt;/font&gt;&lt;/pre&gt;" style="swimlane;childLayout=stackLayout;horizontal=1;startSize=50;horizontalStack=0;rounded=1;fontSize=14;fontStyle=1;strokeWidth=2;resizeParent=0;resizeLast=1;shadow=0;dashed=0;align=center;arcSize=4;whiteSpace=wrap;html=1;fillColor=#fff2cc;strokeColor=#d6b656;fontColor=default;swimlaneFillColor=none;labelBackgroundColor=none;" vertex="1" parent="1">
                    <mxGeometry x="140" y="400" width="100" height="160" as="geometry"/>
                </mxCell>
                <mxCell id="25" value="&lt;div style=&quot;&quot;&gt;&lt;span style=&quot;&quot;&gt;&lt;span style=&quot;color: rgb(63, 63, 63);&quot;&gt;id&lt;/span&gt;&lt;span style=&quot;color: rgb(63, 63, 63); text-align: justify;&quot;&gt;(PK)&amp;nbsp;&lt;/span&gt;&lt;/span&gt;&lt;/div&gt;&lt;div style=&quot;&quot;&gt;&lt;span style=&quot;color: rgb(63, 63, 63);&quot;&gt;name&lt;/span&gt;&lt;/div&gt;&lt;div style=&quot;&quot;&gt;&lt;span style=&quot;color: rgb(63, 63, 63);&quot;&gt;email&lt;/span&gt;&lt;/div&gt;&lt;div style=&quot;&quot;&gt;&lt;span style=&quot;color: rgb(63, 63, 63);&quot;&gt;password&lt;/span&gt;&lt;/div&gt;&lt;div style=&quot;&quot;&gt;&lt;span style=&quot;color: rgb(63, 63, 63);&quot;&gt;created_at&lt;/span&gt;&lt;/div&gt;&lt;div style=&quot;&quot;&gt;&lt;span style=&quot;&quot;&gt;updated_at&lt;/span&gt;&lt;/div&gt;&lt;div&gt;&lt;br&gt;&lt;/div&gt;" style="align=left;strokeColor=#d6b656;fillColor=#fff2cc;spacingLeft=4;fontSize=12;verticalAlign=top;resizable=0;rotatable=0;part=1;html=1;labelBackgroundColor=#FFF2CC;" vertex="1" parent="24">
                    <mxGeometry y="50" width="100" height="110" as="geometry"/>
                </mxCell>
                <mxCell id="32" value="" style="edgeStyle=entityRelationEdgeStyle;fontSize=17;html=1;endArrow=ERoneToMany;exitX=1;exitY=0.25;exitDx=0;exitDy=0;entryX=0;entryY=0.14;entryDx=0;entryDy=0;entryPerimeter=0;fillColor=#dae8fc;strokeColor=#6c8ebf;fontStyle=1" edge="1" parent="1" source="4" target="2">
                    <mxGeometry width="100" height="100" relative="1" as="geometry">
                        <mxPoint x="210" y="530" as="sourcePoint"/>
                        <mxPoint x="320" y="215" as="targetPoint"/>
                        <Array as="points">
                            <mxPoint x="320" y="215"/>
                        </Array>
                    </mxGeometry>
                </mxCell>
                <mxCell id="37" value="&lt;div&gt;&lt;font color=&quot;#000000&quot;&gt;1: 男性&amp;nbsp;&amp;nbsp;&lt;/font&gt;&lt;/div&gt;&lt;div&gt;&lt;font color=&quot;#000000&quot;&gt;2: 女性&amp;nbsp;&amp;nbsp;&lt;/font&gt;&lt;/div&gt;&lt;div&gt;&lt;font color=&quot;#000000&quot;&gt;3: その他&lt;/font&gt;&lt;/div&gt;" style="ellipse;shape=cloud;whiteSpace=wrap;html=1;align=center;" vertex="1" parent="1">
                    <mxGeometry x="320" y="440" width="150" height="120" as="geometry"/>
                </mxCell>
                <mxCell id="38" value="&lt;b&gt;&lt;font style=&quot;color: rgb(153, 255, 255);&quot;&gt;has_many&lt;/font&gt;&lt;/b&gt;&lt;div&gt;&lt;b&gt;&lt;font style=&quot;color: rgb(153, 255, 255);&quot;&gt;contacts&lt;/font&gt;&lt;/b&gt;&lt;/div&gt;" style="text;spacingLeft=4;spacingRight=4;overflow=hidden;rotatable=0;points=[[0,0.5],[1,0.5]];portConstraint=eastwest;fontSize=12;whiteSpace=wrap;html=1;labelBackgroundColor=none;fontColor=#99FFFF;" vertex="1" parent="1">
                    <mxGeometry x="230" y="220" width="70" height="40" as="geometry"/>
                </mxCell>
            </root>
        </mxGraphModel>
    </diagram>
</mxfile>